<svg xmlns="http://www.w3.org/2000/svg" xmlns:xlink="http://www.w3.org/1999/xlink" version="1.0" x="0px" y="0px" viewBox="468.8 282 87 204" enable-background="new 468.8 282 87 204" xml:space="preserve"><g><path d="M547.8,486h-71.3c-2.3,0-4.3-1.9-4.3-4.3v-0.1l0.1-0.3c0.3-0.6,1.8-3.6,4.1-3.6c0.8,0,1.5,0,2.3,0   c13.8,0,23.7-1.8,26.2-2.5c7.6-34.3-1.4-79.1-2.9-84.1c-0.3-0.1-0.7-0.4-1.1-0.7c-5-3.4-17.9-12.5-27.7-22.9   c-11.3-12,1.2-66.1,5.4-82.5c0.4-1.8,2.1-3.2,4-3.2h58.9c1.9,0,3.6,1.4,4.1,3.2c4.1,16.4,16.7,70.5,5.4,82.5   c-9.8,10.3-22.9,19.4-27.7,22.9c-0.4,0.3-0.8,0.6-1.1,0.7c-1.5,5-10.5,49.8-2.9,84.1c2.6,0.7,13.5,2.6,28.4,2.3   c2.3,0,3.9,3,4.1,3.6l0.1,0.3v0.3C552.1,484.2,550.2,486,547.8,486z M475,482.1c0.1,0.7,0.7,1.2,1.5,1.2H548c0.7,0,1.4-0.6,1.5-1.2   c-0.6-1-1.2-1.7-1.5-1.8c-9.6,0.1-17.5-0.7-22.2-1.2c-8.4-1.1-8.5-1.8-8.8-2.6c-4.4-19.5-3.6-41.8-1.9-57.3   c1.2-12.1,4.1-29.3,5.4-30.1c0.4-0.3,0.8-0.6,1.4-1c4.8-3.3,17.8-12.3,27.3-22.4c8.3-8.7,1.9-48.5-5.9-79.8   c-0.3-0.7-0.8-1.1-1.5-1.1h-58.9c-0.7,0-1.2,0.4-1.4,1.1c-7.8,31.4-14.2,71.2-5.9,79.8c9.6,10.2,22.4,19.1,27.3,22.4   c0.6,0.4,1.1,0.8,1.4,1c1.2,0.8,4.1,18,5.4,30.1c1.5,15.4,2.5,37.7-1.9,57.3c-0.1,0.8-0.3,1.4-8.8,2.6c-4.7,0.7-12.4,1.4-22.2,1.2   C476.3,480.4,475.6,481.2,475,482.1z"></path></g></svg>